<svg  viewBox="0 0 907 519" fill="none" xmlns="http://www.w3.org/2000/svg">
<path d="M63.5023 136.02C273.26 65.71 639.867 -50.1405 777.559 23.7287C915.25 97.5978 634.559 91.2486 806.918 303.954C979.278 516.659 861.107 517 769.865 517C678.623 517 346.861 384.068 209.705 462.433C72.5486 540.798 -93.1131 188.516 63.5023 136.02Z" fill="#00ADB5" fill-opacity="0.08"/>
<rect x="620" y="310" width="37" height="92" transform="rotate(-90 620 310)" fill="black"/>
<circle cx="833.5" cy="190.5" r="37.5" fill="#00ADB5" fill-opacity="0.08"/>
<path d="M117.773 301.045H216.364V344H240.5V301.045H269.136V278.545H240.5V134.545H209.818L117.773 280.182V301.045ZM216.364 278.545H145.182V276.909L214.727 166.864H216.364V278.545Z" fill="black"/>
<path d="M538.773 301.045H637.364V344H661.5V301.045H690.136V278.545H661.5V134.545H630.818L538.773 280.182V301.045ZM637.364 278.545H566.182V276.909L635.727 166.864H637.364V278.545Z" fill="black"/>
<path d="M482.5 242.707C482.5 278.59 472.987 300.807 459.429 314.12C445.824 327.48 426.49 333.5 403.5 333.5C380.51 333.5 361.176 327.48 347.571 314.12C334.013 300.807 324.5 278.59 324.5 242.707C324.5 206.829 334.03 180.76 348.25 163.853C362.361 147.075 381.742 138.5 403.5 138.5C425.258 138.5 444.639 147.075 458.75 163.853C472.97 180.76 482.5 206.829 482.5 242.707Z" stroke="black" stroke-width="21"/>
<rect x="634" y="254" width="37" height="95" fill="black"/>
<path d="M786.583 377.333H775.392L771.425 373.508C785.308 357.358 793.667 336.392 793.667 313.583C793.667 262.725 752.442 221.5 701.583 221.5C650.725 221.5 609.5 262.725 609.5 313.583C609.5 364.442 650.725 405.667 701.583 405.667C724.392 405.667 745.358 397.308 761.508 383.425L765.333 387.392V398.583L836.167 469.275L857.275 448.167L786.583 377.333ZM701.583 377.333C666.308 377.333 637.833 348.858 637.833 313.583C637.833 278.308 666.308 249.833 701.583 249.833C736.858 249.833 765.333 278.308 765.333 313.583C765.333 348.858 736.858 377.333 701.583 377.333Z" fill="#00ADB5"/>
</svg>
