<svg  viewBox="0 0 800 458" fill="none" xmlns="http://www.w3.org/2000/svg">
<path d="M56.0109 119.973C241.023 57.9581 564.381 -44.2253 685.829 20.9294C807.277 86.0841 559.699 80.4839 711.725 268.096C863.751 455.708 759.521 456.009 679.043 456.009C598.565 456.009 305.941 338.759 184.965 407.879C63.9899 477 -82.1284 166.277 56.0109 119.973Z" fill="#00ADB5" fill-opacity="0.08"/>
<rect x="546.857" y="273.429" width="32.6351" height="81.1466" transform="rotate(-90 546.857 273.429)" fill="white"/>
<circle cx="735.171" cy="168.027" r="33.0761" fill="#00ADB5" fill-opacity="0.08"/>
<path d="M105.773 271.045H204.364V314H228.5V271.045H257.136V248.545H228.5V104.545H197.818L105.773 250.182V271.045ZM204.364 248.545H133.182V246.909L202.727 136.864H204.364V248.545Z" fill="white"/>
<path d="M469.773 271.045H568.364V314H592.5V271.045H621.136V248.545H592.5V104.545H561.818L469.773 250.182V271.045ZM568.364 248.545H497.182V246.909L566.727 136.864H568.364V248.545Z" fill="white"/>
<path d="M433.383 214.175C433.383 245.613 425.052 264.843 413.405 276.279C401.71 287.763 385.016 293.018 364.942 293.018C344.868 293.018 328.173 287.763 316.478 276.279C304.831 264.843 296.5 245.613 296.5 214.175C296.5 182.741 304.848 160.056 317.157 145.421C329.357 130.915 346.099 123.5 364.942 123.5C383.784 123.5 400.526 130.915 412.726 145.421C425.035 160.056 433.383 182.741 433.383 214.175Z" stroke="white" stroke-width="21"/>
<rect x="559.206" y="224.035" width="32.6351" height="83.7927" fill="white"/>
<path d="M693.789 332.819H683.918L680.419 329.445C692.665 315.2 700.037 296.707 700.037 276.59C700.037 231.731 663.675 195.369 618.817 195.369C573.958 195.369 537.597 231.731 537.597 276.59C537.597 321.448 573.958 357.81 618.817 357.81C638.934 357.81 657.428 350.437 671.672 338.192L675.046 341.691V351.562L737.523 413.914L756.141 395.296L693.789 332.819V332.819ZM618.817 332.819C587.703 332.819 562.587 307.703 562.587 276.59C562.587 245.476 587.703 220.36 618.817 220.36C649.93 220.36 675.046 245.476 675.046 276.59C675.046 307.703 649.93 332.819 618.817 332.819Z" fill="#00ADB5"/>
</svg>
