<svg viewBox="0 0 50 50" fill="none" xmlns="http://www.w3.org/2000/svg">
<path d="M35.5057 13.9004C35.5057 16.1459 34.0453 19.2491 32.2799 20.9445C31.4968 21.6974 30.6534 22.1724 29.8505 22.1724C29.343 22.1724 28.837 22.0909 28.4014 21.9595C27.8049 21.779 27.1703 21.779 26.5737 21.9595C26.1384 22.0909 25.6324 22.1724 25.1249 22.1724C24.2837 22.1724 23.3976 21.6505 22.5829 20.8341C20.8682 19.1174 19.4697 16.0977 19.4697 13.9004C19.4697 10.6582 21.4091 8.69961 23.2327 8.22686C24.1062 8.00035 25.12 8.1461 25.9385 8.35936C26.785 8.57998 27.665 8.61686 28.5223 8.47011C28.6953 8.44036 28.8668 8.40336 29.0369 8.35936C29.8555 8.14623 30.8686 8.00035 31.7426 8.22686C33.5663 8.69961 35.5057 10.6584 35.5057 13.9004Z" fill="#FFBE55"/>
<path d="M29.1664 9.57688C29.1664 9.94575 28.5873 10.2526 27.8187 10.3224C27.7116 10.3325 27.6008 10.3372 27.4873 10.3372C27.3689 10.3372 27.2537 10.332 27.1424 10.3216C26.381 10.249 25.8086 9.9435 25.8086 9.57688H29.1664Z" fill="#FCD2B1"/>
<path d="M26.3184 6.06962C26.483 5.98187 26.6876 6.04449 26.7749 6.20937C26.7946 6.24712 27.0427 6.72136 27.2931 7.47761L28.2059 6.09174C28.308 5.93587 28.5179 5.89299 28.6731 5.99574C28.829 6.09787 28.8721 6.30724 28.7695 6.46286L27.5377 8.33349C27.6301 8.71273 27.7099 9.13048 27.7616 9.57673C27.79 9.81748 27.8102 10.0666 27.8197 10.3222C27.7126 10.3324 27.6019 10.3371 27.4884 10.3371C27.37 10.3371 27.2547 10.3319 27.1435 10.3214C27.1336 10.0656 27.1115 9.81711 27.0812 9.57673" fill="#2A94F4"/>
<path d="M7.34375 43.9886V38.3197C7.34375 37.3067 8.16488 36.4855 9.17775 36.4855H44.692V45.8226H9.17775C8.16488 45.8227 7.34375 45.0016 7.34375 43.9886Z" fill="#F2F2F2"/>
<path d="M40.0244 24.4809H6.01074V34.485H40.0244V24.4809Z" fill="#F2F2F2"/>
<path d="M6.65918 43.155V39.1533C6.65918 37.3148 8.15531 35.8186 9.99393 35.8186H45.3414C45.7099 35.8186 46.0083 36.117 46.0083 36.4855C46.0083 36.8542 45.7099 37.1526 45.3414 37.1526H9.99393C8.89056 37.1526 7.99306 38.0501 7.99306 39.1533V43.155C7.99306 44.2584 8.89056 45.1559 9.99393 45.1559H45.3414C45.7099 45.1559 46.0083 45.4541 46.0083 45.8227C46.0083 46.1915 45.7099 46.4896 45.3414 46.4896H9.99393C8.15531 46.4896 6.65918 44.9935 6.65918 43.155Z" fill="#0B4870"/>
<path d="M6.01074 26.4818H36.6899C37.058 26.4818 37.3567 26.7804 37.3567 27.1486C37.3567 27.517 37.058 27.8156 36.6899 27.8156H6.01074V26.4818Z" fill="#D3D3D3"/>
<path d="M6.01074 29.1492H36.6899C37.058 29.1492 37.3567 29.448 37.3567 29.8162C37.3567 30.1845 37.058 30.4832 36.6899 30.4832H6.01074V29.1492Z" fill="#D3D3D3"/>
<path d="M6.01074 31.8171H36.6899C37.058 31.8171 37.3567 32.1157 37.3567 32.4841C37.3567 32.8522 37.058 33.151 36.6899 33.151H6.01074V31.8171Z" fill="#D3D3D3"/>
<path d="M44.6922 39.8204H10.0117C9.64335 39.8204 9.34473 39.5216 9.34473 39.1532C9.34473 38.7851 9.64335 38.4864 10.0117 38.4864H44.6922V39.8204Z" fill="#D3D3D3"/>
<path d="M44.6922 42.4881H10.0117C9.64335 42.4881 9.34473 42.1894 9.34473 41.821C9.34473 41.4529 9.64335 41.1541 10.0117 41.1541H44.6922V42.4881Z" fill="#D3D3D3"/>
<path d="M44.6922 45.1559H10.0117C9.64335 45.1559 9.34473 44.8571 9.34473 44.489C9.34473 44.1206 9.64335 43.8219 10.0117 43.8219H44.6922V45.1559Z" fill="#D3D3D3"/>
<path d="M3.99121 34.485C3.99121 33.7482 4.58846 33.151 5.32509 33.151H37.338C38.0737 33.151 38.6718 32.5525 38.6718 31.8171V26.4816C38.6718 25.746 38.0737 25.1477 37.338 25.1477H5.32509C4.58846 25.1477 3.99121 24.5505 3.99121 23.8139C3.99121 23.0771 4.58846 22.4799 5.32509 22.4799H37.338C39.5446 22.4799 41.3397 24.275 41.3397 26.4816V31.8171C41.3397 34.0237 39.5447 35.8187 37.338 35.8187H5.32509C4.58846 35.8187 3.99121 35.2215 3.99121 34.485Z" fill="#2A94F4"/>
</svg>
