<svg version="1" xmlns="http://www.w3.org/2000/svg" width="401" height="381" viewBox="0 0 4010 3810" fill="#00adb5"><path d="M1908 3666c-5-115-9-141-30-187-31-66-88-124-148-153-44-21-60-21-685-26-626-5-641-5-692-27-87-35-137-69-196-133-64-69-111-159-126-244-15-84-15-2404 0-2478C65 253 184 117 355 49l60-24 623-3c540-2 631-1 685 13 92 23 161 60 228 122l59 56 60-57c64-61 129-96 227-121 54-14 142-15 685-13l623 3 60 24c173 69 284 198 321 370 20 95 20 2394 0 2488-35 164-152 300-315 365-56 23-60 23-696 28-624 5-641 6-685 26-60 28-120 88-150 150-21 42-24 67-28 187l-4 137h-195l-5-134zm0-1838l-3-1363-26-55c-35-74-67-110-131-145l-53-30-609-3c-706-3-673-7-767 87-96 97-89-15-89 1342 0 1165 0 1189 20 1242 27 72 76 127 146 162l59 30 640 5c639 5 640 5 697 28 31 13 67 32 80 42 13 11 26 19 31 20 4 0 6-613 5-1362zm332 1295c41-16 105-18 685-23l640-5 50-25c69-34 129-99 155-166 20-56 20-61 18-1257l-3-1202-27-51c-34-65-100-124-165-147-45-16-95-17-659-15l-609 3-54 30c-58 32-110 89-138 151-17 37-18 123-21 1407l-2 1368 43-25c23-14 63-33 87-43z" /></svg>